<?xml version="1.0" encoding="utf-8"?>
<!-- Generator: Adobe Illustrator 18.1.1, SVG Export Plug-In . SVG Version: 6.00 Build 0)  -->
<!DOCTYPE svg PUBLIC "-//W3C//DTD SVG 1.1//EN" "http://www.w3.org/Graphics/SVG/1.1/DTD/svg11.dtd">
<svg version="1.1" id="Layer_1" xmlns="http://www.w3.org/2000/svg" xmlns:xlink="http://www.w3.org/1999/xlink" x="0px" y="0px"
	 viewBox="0 0 24 24" enable-background="new 0 0 24 24" xml:space="preserve">
<g id="settings-wheel">
	<g>
		<path d="M66,9.6h-1.5c-0.2-0.9-0.5-1.7-1-2.4l1-1c0.5-0.5,0.5-1.3,0-1.8l-1.2-1.2c-0.5-0.5-1.3-0.5-1.8,0l-1,1
			c-0.7-0.4-1.4-0.6-2.1-0.8V1.9c0-0.7-0.6-1.3-1.3-1.3h-1.7c-0.7,0-1.3,0.6-1.3,1.3v1.6c-0.8,0.2-1.6,0.6-2.2,1l-1.1-1.1
			c-0.5-0.5-1.3-0.5-1.8,0l-1.2,1.2C47,5.1,47,6,47.5,6.5l1.3,1.3c-0.3,0.6-0.5,1.2-0.7,1.9h-1.5c-0.7,0-1.3,0.6-1.3,1.3v1.7
			c0,0.7,0.6,1.3,1.3,1.3h1.6c0.2,0.6,0.4,1.2,0.7,1.7l-1.3,1.3c-0.5,0.5-0.5,1.3,0,1.8L49,20c0.5,0.5,1.3,0.5,1.8,0l1.2-1.2
			c0.6,0.4,1.3,0.7,2,0.9v1.6c0,0.7,0.6,1.3,1.3,1.3H57c0.7,0,1.3-0.6,1.3-1.3v-1.5c0.7-0.2,1.3-0.4,1.9-0.7l1.1,1.1
			c0.5,0.5,1.3,0.5,1.8,0l1.2-1.2c0.5-0.5,0.5-1.3,0-1.8l-0.9-0.9c0.5-0.7,0.8-1.4,1-2.2H66c0.7,0,1.3-0.6,1.3-1.3v-1.7
			C67.3,10.2,66.8,9.6,66,9.6z M56.3,16.1c-2.5,0-4.5-2-4.5-4.5c0-2.5,2-4.5,4.5-4.5c2.5,0,4.5,2,4.5,4.5
			C60.9,14.1,58.8,16.1,56.3,16.1z"/>
	</g>
</g>
<g>
	<rect x="1" y="4.6" width="22" height="2.8"/>
	<rect x="1" y="10.5" width="22" height="2.8"/>
	<rect x="1" y="16.5" width="22" height="2.8"/>
</g>
</svg>
